<mxfile host="app.diagrams.net" modified="2022-12-13T03:11:39.600Z" agent="5.0 (Macintosh; Intel Mac OS X 10_15_7) AppleWebKit/537.36 (KHTML, like Gecko) Chrome/108.0.0.0 Safari/537.36" version="20.6.2" etag="VHxXJlUhvJqTM7V9YbRc" type="github">
  <diagram id="ftX5vsrwvJM81SVWKjm6" name="第 1 页">
    <mxGraphModel dx="1198" dy="712" grid="1" gridSize="10" guides="1" tooltips="1" connect="1" arrows="1" fold="1" page="1" pageScale="1" pageWidth="827" pageHeight="1169" math="0" shadow="0">
      <root>
        <mxCell id="0" />
        <mxCell id="1" parent="0" />
        <mxCell id="Pxc17emsusxqT098yUgU-1" value="数据持久层" style="rounded=1;whiteSpace=wrap;html=1;fillColor=#B2C9AB;strokeColor=#788AA3;fontColor=#46495D;" vertex="1" parent="1">
          <mxGeometry x="70" y="430" width="120" height="50" as="geometry" />
        </mxCell>
        <mxCell id="Pxc17emsusxqT098yUgU-3" value="" style="shape=table;startSize=0;container=1;collapsible=0;childLayout=tableLayout;strokeColor=#788AA3;fontColor=#46495D;fillColor=#B2C9AB;comic=0;" vertex="1" parent="1">
          <mxGeometry x="260" y="450" width="320" height="50" as="geometry" />
        </mxCell>
        <mxCell id="Pxc17emsusxqT098yUgU-4" value="" style="shape=tableRow;horizontal=0;startSize=0;swimlaneHead=0;swimlaneBody=0;top=0;left=0;bottom=0;right=0;collapsible=0;dropTarget=0;fillColor=none;points=[[0,0.5],[1,0.5]];portConstraint=eastwest;strokeColor=#788AA3;fontColor=#46495D;" vertex="1" parent="Pxc17emsusxqT098yUgU-3">
          <mxGeometry width="320" height="50" as="geometry" />
        </mxCell>
        <mxCell id="Pxc17emsusxqT098yUgU-5" value="关键词表" style="shape=partialRectangle;html=1;whiteSpace=wrap;connectable=0;overflow=hidden;fillColor=none;top=0;left=0;bottom=0;right=0;pointerEvents=1;strokeColor=#788AA3;fontColor=#46495D;" vertex="1" parent="Pxc17emsusxqT098yUgU-4">
          <mxGeometry width="80" height="50" as="geometry">
            <mxRectangle width="80" height="50" as="alternateBounds" />
          </mxGeometry>
        </mxCell>
        <mxCell id="Pxc17emsusxqT098yUgU-6" value="推荐词表" style="shape=partialRectangle;html=1;whiteSpace=wrap;connectable=0;overflow=hidden;fillColor=none;top=0;left=0;bottom=0;right=0;pointerEvents=1;strokeColor=#788AA3;fontColor=#46495D;" vertex="1" parent="Pxc17emsusxqT098yUgU-4">
          <mxGeometry x="80" width="80" height="50" as="geometry">
            <mxRectangle width="80" height="50" as="alternateBounds" />
          </mxGeometry>
        </mxCell>
        <mxCell id="Pxc17emsusxqT098yUgU-7" value="离线任务表" style="shape=partialRectangle;html=1;whiteSpace=wrap;connectable=0;overflow=hidden;fillColor=none;top=0;left=0;bottom=0;right=0;pointerEvents=1;strokeColor=#788AA3;fontColor=#46495D;" vertex="1" parent="Pxc17emsusxqT098yUgU-4">
          <mxGeometry x="160" width="80" height="50" as="geometry">
            <mxRectangle width="80" height="50" as="alternateBounds" />
          </mxGeometry>
        </mxCell>
        <mxCell id="Pxc17emsusxqT098yUgU-8" value="关键词信息表" style="shape=partialRectangle;html=1;whiteSpace=wrap;connectable=0;overflow=hidden;fillColor=none;top=0;left=0;bottom=0;right=0;pointerEvents=1;strokeColor=#788AA3;fontColor=#46495D;" vertex="1" parent="Pxc17emsusxqT098yUgU-4">
          <mxGeometry x="240" width="80" height="50" as="geometry">
            <mxRectangle width="80" height="50" as="alternateBounds" />
          </mxGeometry>
        </mxCell>
        <mxCell id="Pxc17emsusxqT098yUgU-20" value="&lt;span style=&quot;&quot;&gt;MySQL&lt;/span&gt;" style="rounded=0;whiteSpace=wrap;html=1;comic=0;strokeColor=#788AA3;fontColor=#46495D;fillColor=#B2C9AB;" vertex="1" parent="1">
          <mxGeometry x="260" y="400" width="320" height="50" as="geometry" />
        </mxCell>
      </root>
    </mxGraphModel>
  </diagram>
</mxfile>
